Coordinates
version=1
nRows=4
nColumns=107
inDegrees=yes

Units are S.I. units (second, meters, Newtons, ...)
If the header above contains a line with 'inDegrees', this indicates whether rotational values are in degrees (yes) or radians (no).

endheader
time	sternoclavicular_r2	sternoclavicular_r3	unrotscap_r3	unrotscap_r2	acromioclavicular_r2	acromioclavicular_r3	acromioclavicular_r1	unrothum_r1	unrothum_r3	unrothum_r2	elv_angle	shoulder_elv	shoulder1_r2	shoulder_rot	elbow_flexion	pro_sup	deviation	flexion	proximal_distal_r1	proximal_distal_r3	cmc_flexion	cmc_abduction	mp_flexion	ip_flexion	mcp2_flexion	mcp2_abduction	pm2_flexion	md2_flexion	mcp3_flexion	mcp3_abduction	pm3_flexion	md3_flexion	mcp4_flexion	mcp4_abduction	pm4_flexion	md4_flexion	mcp5_flexion	mcp5_abduction	pm5_flexion	md5_flexion	bicpt_tx	bicpt_ty	bicpt_tz	bicpt2_tx	bicpt2_ty	bicpt2_tz	ptpt_tx	ptpt_ty	ptpt_tz	FCUpt_tx	FCUpt_ty	FCUpt_tz	EDCpt_tx	EDCpt_ty	EDCpt_tz	APLpt_tx	APLpt_ty	APLpt_tz	FPLpt_tx	FPLpt_ty	FPLpt_tz	FPLpt2_tx	FPLpt2_ty	FPLpt2_tz	PEC1pt2_tx	PEC1pt2_ty	PEC1pt2_tz	PEC1pt3_tx	PEC1pt3_ty	PEC1pt3_tz	PEC2pt2_tx	PEC2pt2_ty	PEC2pt2_tz	PEC2pt3_tx	PEC2pt3_ty	PEC2pt3_tz	PEC3pt2_tx	PEC3pt2_ty	PEC3pt2_tz	PEC3pt3_tx	PEC3pt3_ty	PEC3pt3_tz	DELT2pt2a_tx	DELT2pt2a_ty	DELT2pt2a_tz	DELT2pt2_tx	DELT2pt2_ty	DELT2pt2_tz	LAT1pt2_tx	LAT1pt2_ty	LAT1pt2_tz	LAT1pt3_tx	LAT1pt3_ty	LAT1pt3_tz	LAT2pt2_tx	LAT2pt2_ty	LAT2pt2_tz	LAT2pt3_tx	LAT2pt3_ty	LAT2pt3_tz	LAT3pt2_tx	LAT3pt2_ty	LAT3pt2_tz	LAT3pt3_tx	LAT3pt3_ty	LAT3pt3_tz
      0.00000000	     -0.33014108	      0.13983218	     -0.13983218	      0.33014108	     -0.06684685	      0.54023276	      0.24283091	     -0.24283091	     -0.54023276	      0.06684685	     98.32500199	     78.16383560	     -1.71609502	    -15.95107227	     27.45776528	     37.51123471	      0.17822269	      0.02895255	      0.21587555	      0.01447628	     33.24770010	    -20.38579509	     12.65924357	      7.37503308	    -13.28229344	     10.47416340	     11.15511019	    -31.66641343	    -16.38607630	      4.28725112	      6.37757992	      9.64362762	    -21.43158395	      2.62022079	     -6.86739903	     21.72113876	    -38.48329388	    -13.25351034	     12.96767117	      5.13497966	      0.00080822	     -0.03074708	     -0.00480691	      0.01656267	     -0.01765904	     -0.00773137	      0.00477834	     -0.06669220	     -0.00307173	      0.00753063	     -0.18354596	     -0.00036642	     -0.00450134	      0.00127996	      0.00016261	     -0.00003032	     -0.00001213	     -0.00006064	     -0.00003881	     -0.00011642	     -0.00006549	     -0.00001190	     -0.00021709	     -0.00026051	      0.00256204	      0.00898885	      0.00625311	     -0.00838091	      0.02023577	     -0.01919358	      0.00256204	      0.00898885	      0.00625311	      0.00056452	      0.01875934	     -0.00985734	      0.00402280	      0.00499858	      0.01614772	      0.00000000	      0.00817379	      0.00000000	     -0.00733872	     -0.03391445	     -0.00674179	      0.01133023	     -0.00031096	     -0.00202608	     -0.00091191	      0.01528539	     -0.00625311	      0.00251861	      0.02205959	     -0.01823824	     -0.00612284	      0.01324444	     -0.00560175	     -0.01276677	      0.02796531	     -0.03130899	     -0.02397026	      0.01480772	     -0.00751242	     -0.01589333	      0.03230775	     -0.03912538
      0.03333333	     -0.33041310	      0.13994739	     -0.13994739	      0.33041310	     -0.06690193	      0.54067787	      0.24303098	     -0.24303098	     -0.54067787	      0.06690193	     98.36208417	     78.22823743	     -1.71674223	    -15.89845708	     27.38042035	     37.71636822	      0.17873502	      0.03117746	      0.21642042	      0.01558873	     33.13198378	    -20.12612252	     12.45984297	      7.41381372	    -13.39373600	     10.61967745	     11.19357241	    -31.71207135	    -16.49957323	      4.03686159	      6.41058175	      9.53823164	    -21.82639415	      3.02492582	     -6.95655589	     21.58200980	    -37.90893202	    -13.20314324	     12.92518641	      5.11736363	      0.00080566	     -0.03073821	     -0.00480548	      0.01656418	     -0.01763803	     -0.00771016	      0.00476319	     -0.06670200	     -0.00308826	      0.00755113	     -0.18354183	     -0.00036825	     -0.00452595	      0.00128815	      0.00016140	     -0.00003271	     -0.00001308	     -0.00006542	     -0.00004187	     -0.00012561	     -0.00007066	     -0.00001182	     -0.00021845	     -0.00026214	      0.00256415	      0.00899625	      0.00625826	     -0.00838781	      0.02025244	     -0.01920939	      0.00256415	      0.00899625	      0.00625826	      0.00056498	      0.01877479	     -0.00986546	      0.00402519	      0.00500270	      0.01615336	      0.00000000	      0.00818739	      0.00000000	     -0.00734477	     -0.03394239	     -0.00675307	      0.01129695	     -0.00030944	     -0.00201142	     -0.00091266	      0.01529798	     -0.00625826	      0.00252069	      0.02207777	     -0.01825327	     -0.00612788	      0.01325535	     -0.00560636	     -0.01277729	      0.02798835	     -0.03133478	     -0.02399001	      0.01481992	     -0.00751861	     -0.01590642	      0.03233437	     -0.03915761
      0.06666667	     -0.32681729	      0.13842438	     -0.13842438	      0.32681729	     -0.06617385	      0.53479380	      0.24038613	     -0.24038613	     -0.53479380	      0.06617385	     99.10918807	     77.37689770	     -1.72978165	    -20.23274584	     27.54136614	     42.42235355	      0.16294913	      0.02902113	      0.19941207	      0.01451057	     33.57317035	    -20.26163863	     12.68973691	      6.54512596	    -13.56646185	     10.56146338	     11.86719328	    -33.21263317	    -16.19905299	      4.02928160	      6.09644973	      9.55395430	    -21.99142679	      3.35584893	     -6.89971725	     23.07059767	    -36.96049787	    -13.18855994	     12.77814576	      5.05804257	      0.00081098	     -0.03075666	     -0.00480846	      0.01657222	     -0.01768175	     -0.00720733	      0.00441547	     -0.06692684	     -0.00346735	      0.00802502	     -0.18344384	     -0.00040141	     -0.00509067	      0.00147969	      0.00012744	     -0.00003039	     -0.00001216	     -0.00006078	     -0.00003890	     -0.00011670	     -0.00006564	     -0.00001211	     -0.00021313	     -0.00025576	      0.00253624	      0.00889835	      0.00619016	     -0.00829653	      0.02003204	     -0.01900034	      0.00253624	      0.00889835	      0.00619016	      0.00055883	      0.01857047	     -0.00975809	      0.00399347	      0.00494826	      0.01607787	      0.00000000	      0.00800885	      0.00000000	     -0.00726484	     -0.03357300	     -0.00660492	      0.01391020	     -0.00043910	     -0.00337941	     -0.00090273	      0.01513149	     -0.00619016	      0.00249326	      0.02183750	     -0.01805462	     -0.00606120	      0.01311110	     -0.00554535	     -0.01263824	      0.02768376	     -0.03099377	     -0.02372894	      0.01465864	     -0.00743679	     -0.01573332	      0.03198248	     -0.03873147
      0.10000000	     -0.32686745	      0.13844562	     -0.13844562	      0.32686745	     -0.06618401	      0.53487588	      0.24042303	     -0.24042303	     -0.53487588	      0.06618401	     99.11486118	     77.38877417	     -1.72988067	    -20.23117840	     27.54593864	     42.42486614	      0.16295432	      0.02900113	      0.19941722	      0.01450056	     33.57253322	    -20.26098920	     12.68923439	      6.54514841	    -13.56662590	     10.56113438	     11.86729283	    -33.21248715	    -16.20091026	      4.02893427	      6.09655795	      9.55387378	    -21.99432175	      3.35696120	     -6.90076292	     23.07009017	    -36.95956239	    -13.18831327	     12.77781569	      5.05806781	      0.00081113	     -0.03075719	     -0.00480854	      0.01657221	     -0.01768299	     -0.00720705	      0.00441528	     -0.06692696	     -0.00346755	      0.00802528	     -0.18344379	     -0.00040142	     -0.00509097	      0.00147979	      0.00012742	     -0.00003038	     -0.00001215	     -0.00006075	     -0.00003888	     -0.00011665	     -0.00006561	     -0.00001211	     -0.00021314	     -0.00025577	      0.00253663	      0.00889972	      0.00619111	     -0.00829780	      0.02003511	     -0.01900326	      0.00253663	      0.00889972	      0.00619111	      0.00055892	      0.01857332	     -0.00975959	      0.00399392	      0.00494902	      0.01607893	      0.00000000	      0.00801133	      0.00000000	     -0.00726595	     -0.03357816	     -0.00660697	      0.01390930	     -0.00043905	     -0.00337886	     -0.00090287	      0.01513382	     -0.00619111	      0.00249364	      0.02184085	     -0.01805740	     -0.00606213	      0.01311311	     -0.00554620	     -0.01264018	      0.02768801	     -0.03099853	     -0.02373258	      0.01466089	     -0.00743793	     -0.01573573	      0.03198739	     -0.03873741
